<svg version="1.2" baseProfile="tiny-ps" xmlns="http://www.w3.org/2000/svg" viewBox="0 0 801 801" width="801" height="801">
	<title>castle-1083570-svg</title>
	<defs>
		<clipPath clipPathUnits="userSpaceOnUse" id="cp1">
			<path d="M400 800C178.8 800 0 621.2 0 400C0 178.8 178.8 0 400 0C621.2 0 800 178.8 800 400C800 621.2 621.2 800 400 800Z" />
		</clipPath>
		<linearGradient id="grd1" gradientUnits="userSpaceOnUse"  x1="403.21" y1="359.38" x2="3.929" y2="795.09">
			<stop offset="0" stop-color="#000000" stop-opacity="0.42" />
			<stop offset="1" stop-color="#000000" stop-opacity="0" />
		</linearGradient>
	</defs>
	<style>
		tspan { white-space:pre }
		.shp0 { fill: url(#grd1) } 
		.shp1 { fill: #ffffff } 
	</style>
	<g id="Layer">
		<g id="Clip-Path" clip-path="url(#cp1)">
			<path id="Layer" class="shp0" d="M390.09 144.47C361.39 144.47 335.56 156.29 317.16 175.34L5.18 487.32C31.7 659.93 110.05 796.5 379.98 799.78L555.56 624.2C558.86 621.47 561.22 617.65 562.11 613.29C562.36 612.04 562.5 610.74 562.5 609.42L562.5 328.84C562.5 327.51 562.36 326.22 562.11 324.97C560.33 316.23 552.63 309.68 543.35 309.68L511.22 309.68L511.22 245.78C511.22 189.65 466.03 144.47 409.9 144.47L390.09 144.47Z" />
			<text id="Text layer 9" style="transform: matrix(1,0,0,1,674,672)" >
			</text>
		</g>
		<path id="Layer" fill-rule="evenodd" class="shp1" d="M409.92 144.47C466.04 144.47 511.24 189.65 511.24 245.78L511.24 309.68L543.36 309.68C553.97 309.68 562.51 318.22 562.51 328.83L562.51 609.41C562.51 620.02 553.97 628.57 543.36 628.57L256.66 628.57C246.05 628.57 237.5 620.02 237.5 609.41L237.5 328.83C237.5 318.22 246.05 309.68 256.66 309.68L288.78 309.68L288.78 245.78C288.78 189.65 333.96 144.47 390.09 144.47L409.92 144.47ZM302.67 247.49L302.67 309.68L320.94 309.68L320.94 250.86C320.94 210.96 353.06 178.84 392.95 178.84L407.04 178.84C446.94 178.84 479.06 210.96 479.06 250.86L479.06 309.68L497.33 309.68L497.33 247.49C497.33 198.37 457.79 158.82 408.67 158.82L391.33 158.82C342.21 158.82 302.67 198.37 302.67 247.49ZM393.83 189.04C358.91 189.04 330.82 217.15 330.82 252.07L330.82 309.68L469.19 309.68L469.19 252.07C469.19 217.15 441.08 189.04 406.16 189.04L393.83 189.04ZM252.28 341.6L252.28 596.65C252.28 606.3 260.05 614.06 269.69 614.06L530.3 614.06C539.95 614.06 547.71 606.3 547.71 596.65L547.71 341.6C547.71 331.96 539.95 324.19 530.3 324.19L269.69 324.19C260.05 324.19 252.28 331.96 252.28 341.6Z" />
		<path id="Layer" class="shp1" d="M318.75 402.13L481.25 402.13L481.25 413.97L318.75 413.97L318.75 402.13Z" />
		<path id="Layer" class="shp1" d="M318.75 528.45L481.25 528.45L481.25 540.29L318.75 540.29L318.75 528.45Z" />
		<path id="Layer" class="shp1" d="M318.75 463.97L481.25 463.97L481.25 475.81L318.75 475.81L318.75 463.97Z" />
	</g>
</svg>